<svg xmlns="http://www.w3.org/2000/svg" viewBox="0 0 161.62 196.31"><title>WhatThatMeans</title><g id="Layer_5" data-name="Layer 5"><rect x="4.45" y="3.74" width="35.62" height="166.7" style="fill:#42210b"/><rect x="38.38" y="5.49" width="117.52" height="163.3" style="fill:#603813"/><rect x="3.5" y="170.54" width="145.7" height="20.9" style="fill:#2effc1"/></g><g id="Layer_4" data-name="Layer 4"><path d="M149.67,159q.42,1,1,2.61l1.34,3.92.45,1.4h.43l.56-1.76c.48-1.47.89-2.72,1.23-3.74s.64-1.86.89-2.52a11.7,11.7,0,0,1,.7-1.53,2.43,2.43,0,0,1,.65-.79,1.53,1.53,0,0,1,.75-.3,8.83,8.83,0,0,1,1,0h2.57a2.83,2.83,0,0,1,1.52.35,2.05,2.05,0,0,1,.78.9,3.88,3.88,0,0,1,.29,1.29c0,.48,0,1,0,1.47v17.86a7.07,7.07,0,0,1-.07,1.06,1.92,1.92,0,0,1-.33.87,1.74,1.74,0,0,1-.79.59,3.75,3.75,0,0,1-1.44.22,3,3,0,0,1-1.28-.22,1.58,1.58,0,0,1-.7-.59,2.32,2.32,0,0,1-.31-.87,8.7,8.7,0,0,1-.07-1.06V163.45h-.49l-3.3,9.63c-.1.24-.2.48-.32.72a2.77,2.77,0,0,1-.44.67,2.1,2.1,0,0,1-.62.49,1.68,1.68,0,0,1-.84.2h-.35a1.8,1.8,0,0,1-.87-.2,2.14,2.14,0,0,1-.63-.49,3.11,3.11,0,0,1-.44-.67,4.47,4.47,0,0,1-.31-.72l-3.34-9.63h-.46v14.66a7.07,7.07,0,0,1-.07,1.06,2.32,2.32,0,0,1-.31.87,1.52,1.52,0,0,1-.7.59,3,3,0,0,1-1.27.22,3.84,3.84,0,0,1-1.45-.22,1.74,1.74,0,0,1-.79-.59,2.19,2.19,0,0,1-.33-.87,7.07,7.07,0,0,1-.07-1.06V160.25c0-.5,0-1,0-1.47a3.88,3.88,0,0,1,.29-1.29,2.08,2.08,0,0,1,.79-.9,2.78,2.78,0,0,1,1.52-.35h2.39a9.57,9.57,0,0,1,1,0,1.56,1.56,0,0,1,.76.3,2.76,2.76,0,0,1,.7.81A11.88,11.88,0,0,1,149.67,159Z" transform="translate(-43.1 -29.96)"/><path d="M168.58,179.61a3.89,3.89,0,0,1-.35-1.28,13.79,13.79,0,0,1-.08-1.45v-9.63c0-.49,0-1,.06-1.45a3.65,3.65,0,0,1,.33-1.28,2.1,2.1,0,0,1,.8-.9,2.73,2.73,0,0,1,1.48-.34,2.9,2.9,0,0,1,1.51.32,2.33,2.33,0,0,1,.8.79,2.5,2.5,0,0,1,.31,1,7.47,7.47,0,0,1,.06.86l1.37,1.43a1.07,1.07,0,0,0-.23.2,3.41,3.41,0,0,0-.7,1.3,9.44,9.44,0,0,0-.35,1.92c-.06.74-.09,1.54-.09,2.39v3.41a13.79,13.79,0,0,1-.08,1.45,4.15,4.15,0,0,1-.35,1.28,2.31,2.31,0,0,1-.8.9,2.66,2.66,0,0,1-1.45.34,2.6,2.6,0,0,1-1.44-.34A2.24,2.24,0,0,1,168.58,179.61Z" transform="translate(-43.1 -29.96)"/><path d="M177.77,179.61a3.67,3.67,0,0,1-.36-1.28,11.53,11.53,0,0,1-.08-1.45v-7c0-.32,0-.63-.05-.93a2.41,2.41,0,0,0-.2-.81,1.36,1.36,0,0,0-.46-.57,1.42,1.42,0,0,0-.84-.22,1.55,1.55,0,0,0-.91.27l-1.37-1.43a4,4,0,0,1,.5-1,4.1,4.1,0,0,1,.87-.95,4.6,4.6,0,0,1,1.21-.69,4.17,4.17,0,0,1,1.53-.27,4.81,4.81,0,0,1,2.25.56,4.65,4.65,0,0,1,1.86,1.83,3.07,3.07,0,0,1,.78-1,4.62,4.62,0,0,1,1.16-.75,6.2,6.2,0,0,1,1.38-.45,8.19,8.19,0,0,1,1.46-.14,6.24,6.24,0,0,1,1.94.31,4.52,4.52,0,0,1,1.74,1.06,5.47,5.47,0,0,1,1.25,1.92,7.64,7.64,0,0,1,.49,2.93v7.38a11.52,11.52,0,0,1-.09,1.45,3.9,3.9,0,0,1-.37,1.28,2.29,2.29,0,0,1-.82.9,2.59,2.59,0,0,1-1.43.34,2.66,2.66,0,0,1-1.45-.34,2.29,2.29,0,0,1-.82-.9,4.15,4.15,0,0,1-.36-1.28,13.79,13.79,0,0,1-.08-1.45v-7a7.06,7.06,0,0,0-.05-.93,2.41,2.41,0,0,0-.21-.81,1.38,1.38,0,0,0-.47-.57,1.47,1.47,0,0,0-.85-.22,1.44,1.44,0,0,0-1,.35,2.76,2.76,0,0,0-.66,1,6.54,6.54,0,0,0-.4,1.46,16.67,16.67,0,0,0-.19,1.86v4.85a13.79,13.79,0,0,1-.08,1.45,4.15,4.15,0,0,1-.36,1.28,2.29,2.29,0,0,1-.82.9,2.66,2.66,0,0,1-1.45.34,2.55,2.55,0,0,1-1.42-.34A2.19,2.19,0,0,1,177.77,179.61Z" transform="translate(-43.1 -29.96)"/><path d="M150.91,125.52a3.9,3.9,0,0,1,.14,1.13,2.19,2.19,0,0,1-.33,1.21,2.5,2.5,0,0,1-.87.84,4,4,0,0,1-1.26.49,6.79,6.79,0,0,1-1.51.16,7.78,7.78,0,0,1-2.14-.26,4.38,4.38,0,0,1-1.48-.75,3.61,3.61,0,0,1-.93-1.16,5.78,5.78,0,0,1-.51-1.52,12.46,12.46,0,0,1-.21-1.82c0-.65,0-1.33,0-2V116h-1a6.8,6.8,0,0,1-.9-.06,2,2,0,0,1-.8-.27,1.46,1.46,0,0,1-.57-.63,2.48,2.48,0,0,1-.22-1.15,2.51,2.51,0,0,1,.22-1.17,1.43,1.43,0,0,1,.57-.64,1.88,1.88,0,0,1,.8-.25c.3,0,.6,0,.9,0h1v-3.09a11.37,11.37,0,0,1,.08-1.44,3.56,3.56,0,0,1,.36-1.26,2.15,2.15,0,0,1,.8-.89,2.61,2.61,0,0,1,1.43-.35,2.52,2.52,0,0,1,1.4.35,2.08,2.08,0,0,1,.8.89,3.78,3.78,0,0,1,.36,1.26,13.59,13.59,0,0,1,.08,1.44v3.09h1.44c.3,0,.61,0,.91,0a2,2,0,0,1,.82.25,1.51,1.51,0,0,1,.58.64,2.65,2.65,0,0,1,.22,1.17,2.61,2.61,0,0,1-.22,1.15,1.55,1.55,0,0,1-.58.63,2.15,2.15,0,0,1-.82.27,7,7,0,0,1-.91.06h-1.44v6.16c0,.23,0,.48,0,.74a1.92,1.92,0,0,0,.19.73,1.4,1.4,0,0,0,.47.56,1.61,1.61,0,0,0,.9.22,5.59,5.59,0,0,1,1.08.09,1.81,1.81,0,0,1,.74.34A1.6,1.6,0,0,1,150.91,125.52Z" transform="translate(-43.1 -29.96)"/><path d="M148.64,61.94a3.54,3.54,0,0,1,.13,1,3.46,3.46,0,0,1-.13.92c-.09.3-.19.6-.3.91l-3.9,10.37a11.39,11.39,0,0,1-.73,1.59,2.85,2.85,0,0,1-.64.81,1.3,1.3,0,0,1-.63.3,4.83,4.83,0,0,1-.67,0,5.64,5.64,0,0,1-.73,0,1.42,1.42,0,0,1-.68-.3,3.09,3.09,0,0,1-.7-.81,9.37,9.37,0,0,1-.74-1.59l-1.83-6.33h-.28l-1.89,6.33a10.46,10.46,0,0,1-.72,1.59,2.84,2.84,0,0,1-.63.81,1.23,1.23,0,0,1-.62.3,4.83,4.83,0,0,1-.67,0,5.64,5.64,0,0,1-.73,0,1.49,1.49,0,0,1-.69-.3,3.08,3.08,0,0,1-.69-.81,9.37,9.37,0,0,1-.74-1.59l-3.94-10.37c-.1-.28-.2-.58-.29-.91a4,4,0,0,1-.13-.95,4.07,4.07,0,0,1,.13-1,2.27,2.27,0,0,1,.43-.83,1.93,1.93,0,0,1,.76-.57,2.76,2.76,0,0,1,1.18-.22,1.89,1.89,0,0,1,.89.22,2.78,2.78,0,0,1,.71.58,3.88,3.88,0,0,1,.54.82,6.54,6.54,0,0,1,.39,1l2.21,6.89h.29l1.61-5a3.74,3.74,0,0,1,1.17-1.92,2.6,2.6,0,0,1,1.57-.54,2.31,2.31,0,0,1,1.51.54,4.46,4.46,0,0,1,1.17,1.92l1.86,5h.28l2-6.89a5.46,5.46,0,0,1,.36-1,3.53,3.53,0,0,1,.54-.82,2.52,2.52,0,0,1,.75-.58,2.44,2.44,0,0,1,1.06-.22,2.32,2.32,0,0,1,1.07.23,2.22,2.22,0,0,1,.72.6A2.33,2.33,0,0,1,148.64,61.94Z" transform="translate(-43.1 -29.96)"/><path d="M133.13,105.84a2.38,2.38,0,0,1,.36,1.4,2.31,2.31,0,0,1-.36,1.38,2.25,2.25,0,0,1-.94.75,4.35,4.35,0,0,1-1.29.3c-.48,0-1,.07-1.42.07h-1.79v15.6c0,.51,0,1,0,1.48a3.82,3.82,0,0,1-.29,1.28,2,2,0,0,1-.8.91,2.86,2.86,0,0,1-1.54.34,2.9,2.9,0,0,1-1.55-.34,2,2,0,0,1-.79-.91,3.82,3.82,0,0,1-.29-1.28c0-.48,0-1,0-1.48v-15.6h-1.8c-.47,0-.94,0-1.41-.07a4.21,4.21,0,0,1-1.29-.3,2.25,2.25,0,0,1-.94-.75,2.31,2.31,0,0,1-.36-1.38,2.38,2.38,0,0,1,.36-1.4,2.25,2.25,0,0,1,.94-.75,3.94,3.94,0,0,1,1.29-.29q.7-.06,1.41-.06h8.93c.47,0,.94,0,1.42.06a4.06,4.06,0,0,1,1.29.29A2.25,2.25,0,0,1,133.13,105.84Z" transform="translate(-43.1 -29.96)"/><path d="M120.91,55.56c0,.14,0,.28,0,.41a2.32,2.32,0,0,1,0,.33c0,.12,0,.22-.07.32L116,75.74a3.62,3.62,0,0,1-.7,1.06,3.91,3.91,0,0,1-1,.73,3.08,3.08,0,0,1-1.47.32h-.59a3,3,0,0,1-1.45-.32,3.32,3.32,0,0,1-.89-.73,3.12,3.12,0,0,1-.58-1.06l-2.46-10.3h-.6c-.38,1.67-.78,3.38-1.21,5.15s-.83,3.49-1.22,5.15a3.58,3.58,0,0,1-.61,1.06,3.78,3.78,0,0,1-.91.73,2.86,2.86,0,0,1-1.43.32h-.6a3.17,3.17,0,0,1-1.48-.32,4,4,0,0,1-1-.73,3.68,3.68,0,0,1-.72-1.06L92.33,56.62a2.55,2.55,0,0,1-.07-.32A2.19,2.19,0,0,1,92.2,56c0-.13,0-.27,0-.41a2.3,2.3,0,0,1,.15-.79,2.26,2.26,0,0,1,.45-.74,2.54,2.54,0,0,1,.78-.57,2.6,2.6,0,0,1,1.08-.22,2.14,2.14,0,0,1,1.31.38,3.08,3.08,0,0,1,.78.84,4.18,4.18,0,0,1,.47,1.21l3.06,14h.6c.22-1.08.46-2.22.72-3.41s.52-2.39.78-3.6.53-2.41.79-3.6.52-2.33.77-3.42a3.25,3.25,0,0,1,.95-1.66,2.38,2.38,0,0,1,1.69-.66,2.42,2.42,0,0,1,1.69.66,2.71,2.71,0,0,1,.59.74,3.19,3.19,0,0,1,.35.92l3,14h.59c.5-2.29,1-4.62,1.51-7s1-4.72,1.55-7a4.5,4.5,0,0,1,.48-1.21,2.8,2.8,0,0,1,.78-.84,2.12,2.12,0,0,1,1.31-.38,2.6,2.6,0,0,1,1.08.22,2.38,2.38,0,0,1,.77.57,2.13,2.13,0,0,1,.46.74A2.3,2.3,0,0,1,120.91,55.56Z" transform="translate(-43.1 -29.96)"/><path d="M46.6,213.22a9.55,9.55,0,0,0,9.54,9.55H185a9.55,9.55,0,0,0,9.55-9.55v-13.6" transform="translate(-43.1 -29.96)" style="fill:none;stroke:#000;stroke-miterlimit:10;stroke-width:7px"/><path d="M46.6,209.76V43a9.55,9.55,0,0,1,9.54-9.55H191.67A9.56,9.56,0,0,1,201.22,43v147.4a9.56,9.56,0,0,1-6.68,9.11,9.93,9.93,0,0,1-2.85.43l-109.26.21-26.3.05a9.54,9.54,0,0,0-9.53,9.55" transform="translate(-43.1 -29.96)" style="fill:none;stroke:#000;stroke-miterlimit:10;stroke-width:7px"/><line x1="3.5" y1="179.8" x2="3.5" y2="183.26" style="fill:none;stroke:#000;stroke-miterlimit:10;stroke-width:7px"/><line x1="3.5" y1="184.43" x2="3.5" y2="183.26" style="fill:none;stroke:#000;stroke-miterlimit:10;stroke-width:7px"/><line x1="39.33" y1="170.2" x2="39.33" y2="45.99" style="fill:none;stroke:#000;stroke-linecap:round;stroke-miterlimit:10;stroke-width:7px"/><line x1="39.33" y1="17.09" x2="39.33" y2="31.25" style="fill:none;stroke:#000;stroke-linecap:round;stroke-miterlimit:10;stroke-width:7px"/><line x1="17.08" y1="17.09" x2="25.75" y2="17.09" style="fill:none;stroke:#000;stroke-linecap:round;stroke-miterlimit:10;stroke-width:7px"/><line x1="82.84" y1="157.54" x2="49.09" y2="157.54" style="fill:none;stroke:#42210b;stroke-linecap:round;stroke-miterlimit:10;stroke-width:8px"/><line x1="13.43" y1="178.99" x2="142.18" y2="178.99" style="fill:none;stroke:#000;stroke-linecap:round;stroke-miterlimit:10;stroke-opacity:0.35000000000000003;stroke-width:3px"/><line x1="13.43" y1="183.99" x2="142.18" y2="183.99" style="fill:none;stroke:#000;stroke-linecap:round;stroke-miterlimit:10;stroke-opacity:0.35000000000000003;stroke-width:3px;stroke-dasharray:12,10,4,10,10,20"/></g></svg>